# xmcd
#
# Track frame offsets:
#	150
#	10736
#	20734
#	34723
#	51825
#	60632
#	72378
#	84832
#	95090
#	108945
#	121456
#	134539
#	143173
#	155492
#	164794
#	173798
#	185245
#	195630
#	207231
#	218607
#	228121
#	239682
#	250082
#	263818
#	278128
#
# Disc length: 3850 seconds
# Revision: 1
# Processed by: cddbd v1.5.2PL0 Copyright (c) Steve Scherf et al.
# Submitted via: dBpowerAMP V12.0
#
DISCID=6f0f0819
DTITLE=Various Artist - Songs of the Wild West
DYEAR=1962
DGENRE=Western
TTITLE0=Johnny Cash - Bonanza!
TTITLE1=Glen Campbell - Death Valley
TTITLE2=Eddy Arnold - Tennessee Stud
TTITLE3=Marty Robbins - Ballad of the Alamo
TTITLE4=Frankie Laine - Gunslinger
TTITLE5=Tex Ritter - Sam Bass
TTITLE6=Johnny Horton - North to Alaska
TTITLE7=Patsy Cline - San Antonio Rose
TTITLE8=Kingston Trio, The - Tom Dooley
TTITLE9=Johnny Western - Nineteen Men
TTITLE10=Rooftop Singers, The - Cool Water
TTITLE11=Jimmie Driftwood - The Pony Express (I've Got to Carry the Mail)
TTITLE12=Hank Thompson - Oklahoma Hills
TTITLE13=Tex Johnson - Belle Starr
TTITLE14=Johnny Cash - Lost on the Desert
TTITLE15=Paul Evans - Samuel Hall
TTITLE16=Porter Wagoner - The Battle of Little Big Horn
TTITLE17=Hank Williams - Kaw-Liga
TTITLE18=Webb Pierce - Public Enemy Number One
TTITLE19=Frankie Laine - Gunfight at the O.K. Corral
TTITLE20=Willis Brothers, The - Blood on the Saddle
TTITLE21=Jimmie Driftwood - The Widders of Bowling Green
TTITLE22=Lefty Frizzell - The Long Black Veil
TTITLE23=Marty Robbins - Ride, Cowboy Ride
TTITLE24=Bill Hayes - Ballad of Davy Crockett
EXTD=
EXTT0=
EXTT1=
EXTT2=
EXTT3=
EXTT4=
EXTT5=
EXTT6=
EXTT7=
EXTT8=
EXTT9=
EXTT10=
EXTT11=
EXTT12=
EXTT13=
EXTT14=
EXTT15=
EXTT16=
EXTT17=
EXTT18=
EXTT19=
EXTT20=
EXTT21=
EXTT22=
EXTT23=
EXTT24=
PLAYORDER=
